# xmcd CD database file
#
# Track frame offsets:
#	150
#	22945
#	39155
#	51265
#	67614
#	85532
#	108223
#	126832
#	146301
#	162076
#	183130
#	203936
#	223772
#	244821
#
# Disc length: 3635 seconds
#
# Revision: 0
# Processed by: cddbd v1.4PL0 Copyright (c) Steve Scherf et al.
# Submitted via: Feurio! 1.65 - http://www.feurio.com
#
DISCID=ac0e310e
DTITLE=Heinrich Walcher - Cuba Libre
DYEAR=1900
DGENRE=Other
TTITLE0=Haus Auf Der Insel
TTITLE1=Sommerreggae
TTITLE2=Especially For You
TTITLE3=Kakerlak
TTITLE4=Alligator Liz
TTITLE5=Rosita
TTITLE6=Florida
TTITLE7=Mei Grosse Liebe
TTITLE8=Alles Klar
TTITLE9=Du
TTITLE10=Geh Bitte
TTITLE11=Sex Mit 45
TTITLE12=Tu Me Llegaste Aqui
TTITLE13=Iriginal Alligator-Liz
EXTD=
EXTT0=
EXTT1=
EXTT2=
EXTT3=
EXTT4=
EXTT5=
EXTT6=
EXTT7=
EXTT8=
EXTT9=
EXTT10=
EXTT11=
EXTT12=
EXTT13=
PLAYORDER=
